<svg width="10" height="18" viewBox="0 0 10 18" fill="none" xmlns="http://www.w3.org/2000/svg">
<path fill-rule="evenodd" clip-rule="evenodd" d="M9.63353 0.616243C9.39912 0.381904 9.08123 0.250259 8.74978 0.250259C8.41832 0.250259 8.10044 0.381904 7.86603 0.616243L0.366027 8.11624C0.131689 8.35065 4.44547e-05 8.66854 4.44402e-05 8.99999C4.44257e-05 9.33145 0.131689 9.64933 0.366027 9.88374L7.86603 17.3837C8.10178 17.6114 8.41753 17.7374 8.74528 17.7346C9.07302 17.7317 9.38654 17.6003 9.6183 17.3685C9.85006 17.1368 9.98152 16.8232 9.98437 16.4955C9.98722 16.1677 9.86123 15.852 9.63353 15.6162L3.01728 8.99999L9.63353 2.38374C9.86787 2.14933 9.99951 1.83145 9.99951 1.49999C9.99951 1.16854 9.86787 0.850652 9.63353 0.616243Z" fill="black"/>
</svg>
