<svg width="18" height="10" viewBox="0 0 18 10" fill="none" xmlns="http://www.w3.org/2000/svg">
<path fill-rule="evenodd" clip-rule="evenodd" d="M0.616472 0.366258C0.382133 0.600668 0.250488 0.918553 0.250488 1.25001C0.250488 1.58146 0.382133 1.89935 0.616472 2.13376L8.11647 9.63376C8.35088 9.8681 8.66877 9.99974 9.00022 9.99974C9.33168 9.99974 9.64956 9.8681 9.88397 9.63376L17.384 2.13376C17.6117 1.898 17.7377 1.58225 17.7348 1.25451C17.732 0.926761 17.6005 0.613245 17.3687 0.381485C17.137 0.149724 16.8235 0.0182635 16.4957 0.0154154C16.168 0.0125674 15.8522 0.13856 15.6165 0.366258L9.00022 6.98251L2.38397 0.366258C2.14956 0.131919 1.83168 0.000274658 1.50022 0.000274658C1.16877 0.000274658 0.850881 0.131919 0.616472 0.366258Z" fill="white"/>
</svg>
