<svg width="32" height="32" viewBox="0 0 32 32" fill="none" xmlns="http://www.w3.org/2000/svg">
<path d="M12.6539 30.8395C10.8969 30.8395 9.46741 29.41 9.46741 27.653C9.46741 25.896 10.8969 24.467 12.6539 24.467C14.4109 24.467 15.8404 25.896 15.8404 27.653C15.8404 29.41 14.4109 30.8395 12.6539 30.8395ZM12.6539 26.467C12.3394 26.4673 12.0378 26.5923 11.8154 26.8146C11.593 27.037 11.4678 27.3385 11.4674 27.653C11.4674 28.3075 11.9994 28.8395 12.6539 28.8395C13.3084 28.8395 13.8404 28.3075 13.8404 27.653C13.84 27.3385 13.7149 27.037 13.4924 26.8146C13.27 26.5923 12.9684 26.4673 12.6539 26.467ZM23.7309 30.8395C21.9739 30.8395 20.5449 29.41 20.5449 27.653C20.5449 25.896 21.9739 24.467 23.7309 24.467C25.4879 24.467 26.9174 25.896 26.9174 27.653C26.9174 29.41 25.4874 30.8395 23.7309 30.8395ZM23.7309 26.467C23.4165 26.4674 23.1151 26.5925 22.8927 26.8148C22.6704 27.0372 22.5453 27.3386 22.5449 27.653C22.5452 27.9675 22.6702 28.2691 22.8925 28.4915C23.1149 28.714 23.4164 28.8391 23.7309 28.8395C24.0455 28.8392 24.3471 28.7142 24.5696 28.4917C24.7921 28.2692 24.9171 27.9676 24.9174 27.653C24.917 27.3385 24.7919 27.037 24.5694 26.8146C24.347 26.5923 24.0454 26.4673 23.7309 26.467ZM26.0639 21.997H10.3544C9.61611 21.9999 8.89893 21.7507 8.32157 21.2905C7.7442 20.8304 7.34126 20.1869 7.17941 19.4665L3.91891 5.22801C3.8973 5.13464 3.85474 5.04741 3.79445 4.97291C3.73416 4.89842 3.65772 4.83861 3.57091 4.79801L0.866409 3.54451C0.570961 3.40186 0.343441 3.14877 0.232942 2.83985C0.122444 2.53094 0.137826 2.19096 0.27577 1.89329C0.413713 1.59561 0.663159 1.3641 0.970282 1.24872C1.27741 1.13333 1.61758 1.14331 1.91741 1.27651L4.62191 2.53001C5.05429 2.73188 5.43509 3.02945 5.73551 3.4002C6.03592 3.77095 6.24807 4.20517 6.35591 4.67001L9.61641 18.9095C9.65401 19.0769 9.74767 19.2265 9.88188 19.3334C10.0161 19.4404 10.1828 19.4983 10.3544 19.4975H26.0639C26.2351 19.498 26.4013 19.4404 26.5354 19.334C26.6695 19.2276 26.7635 19.0788 26.8019 18.912L29.3369 8.00551C29.3637 7.89462 29.3647 7.77905 29.3397 7.66773C29.3148 7.55641 29.2645 7.45232 29.1929 7.36351C29.1226 7.27359 29.0325 7.20104 28.9297 7.15145C28.8269 7.10186 28.7141 7.07657 28.5999 7.07751H10.0999C9.76839 7.07751 9.45045 6.94581 9.21603 6.71139C8.98161 6.47697 8.84991 6.15903 8.84991 5.82751C8.84991 5.49599 8.98161 5.17805 9.21603 4.94363C9.45045 4.70921 9.76839 4.57751 10.0999 4.57751H28.5999C29.5994 4.57751 30.5284 5.02601 31.1504 5.80851C31.7724 6.59101 31.9984 7.59801 31.7724 8.57151L29.2369 19.4785C29.0722 20.196 28.6684 20.8361 28.0918 21.2938C27.5152 21.7515 26.8001 21.9995 26.0639 21.997Z" fill="white"/>
</svg>
