<svg width="25" height="24" viewBox="0 0 25 24" fill="none" xmlns="http://www.w3.org/2000/svg">
<path d="M18.4897 15.7305H10.3423C9.79143 15.7302 9.25767 15.5422 8.83166 15.1983C8.40566 14.8544 8.11369 14.3759 8.00535 13.844L6.39971 5.94604H3.87202C3.66121 5.94604 3.45903 5.86357 3.30996 5.71678C3.16089 5.56998 3.07715 5.37088 3.07715 5.16329C3.07715 4.95569 3.16089 4.75659 3.30996 4.60979C3.45903 4.463 3.66121 4.38053 3.87202 4.38053H7.05151C7.23746 4.37684 7.41885 4.43748 7.56409 4.5519C7.70932 4.66632 7.80922 4.82727 7.84638 5.00673L9.5633 13.5388C9.60046 13.7182 9.70036 13.8792 9.84559 13.9936C9.99083 14.108 10.1722 14.1687 10.3582 14.165H18.4897C18.6746 14.169 18.8551 14.1095 19.0001 13.9966C19.1452 13.8838 19.2458 13.7246 19.2846 13.5466L20.5643 7.67593C20.5896 7.56033 20.5879 7.4406 20.5594 7.32574C20.531 7.21087 20.4764 7.10385 20.3999 7.0127C20.3234 6.92156 20.227 6.84867 20.1178 6.7995C20.0086 6.75032 19.8895 6.72615 19.7695 6.7288H18.9746C18.7638 6.7288 18.5616 6.64633 18.4125 6.49953C18.2635 6.35274 18.1797 6.15364 18.1797 5.94604C18.1797 5.73844 18.2635 5.53934 18.4125 5.39255C18.5616 5.24575 18.7638 5.16329 18.9746 5.16329H19.7695C20.1304 5.15508 20.4885 5.22769 20.8168 5.37565C21.1451 5.52361 21.435 5.74305 21.6647 6.01742C21.8943 6.29179 22.0577 6.61392 22.1424 6.95952C22.2272 7.30513 22.2312 7.66518 22.1541 8.01251L20.8584 13.8832C20.741 14.4131 20.4409 14.8867 20.0091 15.2234C19.5773 15.5602 19.0404 15.7393 18.4897 15.7305ZM11.0259 21.6011C10.5542 21.6011 10.0932 21.4634 9.70105 21.2054C9.3089 20.9474 9.00325 20.5806 8.82277 20.1515C8.64228 19.7224 8.59506 19.2503 8.68707 18.7948C8.77908 18.3392 9.00619 17.9208 9.33969 17.5924C9.67318 17.264 10.0981 17.0403 10.5607 16.9497C11.0232 16.8591 11.5027 16.9056 11.9384 17.0834C12.3742 17.2611 12.7466 17.5621 13.0086 17.9483C13.2706 18.3344 13.4105 18.7884 13.4105 19.2529C13.4105 19.8757 13.1592 20.473 12.712 20.9134C12.2648 21.3537 11.6583 21.6011 11.0259 21.6011ZM11.0259 18.4701C10.8687 18.4701 10.715 18.516 10.5843 18.602C10.4535 18.688 10.3517 18.8103 10.2915 18.9533C10.2313 19.0964 10.2156 19.2537 10.2463 19.4056C10.2769 19.5574 10.3526 19.6969 10.4638 19.8064C10.575 19.9158 10.7166 19.9904 10.8708 20.0206C11.025 20.0508 11.1848 20.0353 11.3301 19.976C11.4753 19.9168 11.5994 19.8165 11.6868 19.6878C11.7741 19.559 11.8207 19.4077 11.8207 19.2529C11.8207 19.0453 11.737 18.8462 11.5879 18.6994C11.4389 18.5526 11.2367 18.4701 11.0259 18.4701ZM18.1797 21.6011C17.7081 21.6011 17.247 21.4634 16.8549 21.2054C16.4627 20.9474 16.1571 20.5806 15.9766 20.1515C15.7961 19.7224 15.7489 19.2503 15.8409 18.7948C15.9329 18.3392 16.16 17.9208 16.4935 17.5924C16.827 17.264 17.2519 17.0403 17.7145 16.9497C18.1771 16.8591 18.6565 16.9056 19.0923 17.0834C19.528 17.2611 19.9004 17.5621 20.1624 17.9483C20.4245 18.3344 20.5643 18.7884 20.5643 19.2529C20.5643 19.8757 20.3131 20.473 19.8659 20.9134C19.4187 21.3537 18.8122 21.6011 18.1797 21.6011ZM18.1797 18.4701C18.0225 18.4701 17.8688 18.516 17.7381 18.602C17.6074 18.688 17.5055 18.8103 17.4453 18.9533C17.3852 19.0964 17.3694 19.2537 17.4001 19.4056C17.4308 19.5574 17.5065 19.6969 17.6177 19.8064C17.7288 19.9158 17.8705 19.9904 18.0246 20.0206C18.1788 20.0508 18.3387 20.0353 18.4839 19.976C18.6291 19.9168 18.7533 19.8165 18.8406 19.6878C18.928 19.559 18.9746 19.4077 18.9746 19.2529C18.9746 19.0453 18.8908 18.8462 18.7418 18.6994C18.5927 18.5526 18.3905 18.4701 18.1797 18.4701Z" fill="white"/>
<path d="M16.59 9.85982H11.8208C11.6099 9.85982 11.4078 9.77735 11.2587 9.63056C11.1096 9.48376 11.0259 9.28467 11.0259 9.07707C11.0259 8.86947 11.1096 8.67037 11.2587 8.52358C11.4078 8.37678 11.6099 8.29431 11.8208 8.29431H16.59C16.8008 8.29431 17.003 8.37678 17.152 8.52358C17.3011 8.67037 17.3849 8.86947 17.3849 9.07707C17.3849 9.28467 17.3011 9.48376 17.152 9.63056C17.003 9.77735 16.8008 9.85982 16.59 9.85982Z" fill="white"/>
<path d="M14.2055 12.2081C13.9947 12.2081 13.7925 12.1256 13.6435 11.9788C13.4944 11.832 13.4106 11.6329 13.4106 11.4253V6.7288C13.4106 6.5212 13.4944 6.3221 13.6435 6.17531C13.7925 6.02851 13.9947 5.94604 14.2055 5.94604C14.4163 5.94604 14.6185 6.02851 14.7676 6.17531C14.9166 6.3221 15.0004 6.5212 15.0004 6.7288V11.4253C15.0004 11.6329 14.9166 11.832 14.7676 11.9788C14.6185 12.1256 14.4163 12.2081 14.2055 12.2081Z" fill="white"/>
</svg>
