<svg width="63" height="37" viewBox="0 0 63 37" fill="none" xmlns="http://www.w3.org/2000/svg">
<path d="M18.4084 30.6777H12.0253C11.7499 30.6777 11.4857 30.5683 11.291 30.3735C11.0962 30.1788 10.9868 29.9146 10.9868 29.6392C10.9868 29.3638 11.0962 29.0997 11.291 28.9049C11.4857 28.7102 11.7499 28.6008 12.0253 28.6008H18.4084C18.6838 28.6008 18.9479 28.7102 19.1427 28.9049C19.3374 29.0997 19.4468 29.3638 19.4468 29.6392C19.4468 29.9146 19.3374 30.1788 19.1427 30.3735C18.9479 30.5683 18.6838 30.6777 18.4084 30.6777ZM44.3076 30.6777H30.3645C30.0891 30.6777 29.825 30.5683 29.6302 30.3735C29.4355 30.1788 29.326 29.9146 29.326 29.6392C29.326 29.3638 29.4355 29.0997 29.6302 28.9049C29.825 28.7102 30.0891 28.6008 30.3645 28.6008H44.3076C44.583 28.6008 44.8471 28.7102 45.0419 28.9049C45.2366 29.0997 45.346 29.3638 45.346 29.6392C45.346 29.9146 45.2366 30.1788 45.0419 30.3735C44.8471 30.5683 44.583 30.6777 44.3076 30.6777ZM61.2484 30.6777H56.2499C55.9745 30.6777 55.7103 30.5683 55.5156 30.3735C55.3208 30.1788 55.2114 29.9146 55.2114 29.6392C55.2114 29.3638 55.3208 29.0997 55.5156 28.9049C55.7103 28.7102 55.9745 28.6008 56.2499 28.6008H60.2307V20.5562C60.2317 20.0361 60.1062 19.5236 59.865 19.0628C59.6238 18.6021 59.2741 18.207 58.846 17.9115L55.6614 15.7585C55.5501 15.6794 55.4539 15.5809 55.3776 15.4677L47.8176 3.78846C47.5031 3.29574 47.069 2.89067 46.5557 2.61103C46.0424 2.33139 45.4667 2.18628 44.8822 2.18923H15.923C15.6476 2.18923 15.3834 2.07982 15.1887 1.88507C14.9939 1.69032 14.8845 1.42618 14.8845 1.15077C14.8845 0.875349 14.9939 0.611212 15.1887 0.416462C15.3834 0.221713 15.6476 0.112305 15.923 0.112305H44.8822C45.8136 0.109202 46.7307 0.341031 47.5487 0.786347C48.3667 1.23166 49.0593 1.87608 49.5622 2.66L57.0045 14.1592L59.9814 16.1946C60.6955 16.6768 61.2807 17.3263 61.6862 18.0865C62.0916 18.8467 62.3049 19.6946 62.3076 20.5562V29.6392C62.3076 29.7774 62.2801 29.9141 62.2266 30.0415C62.1731 30.1689 62.0948 30.2843 61.9961 30.381C61.8975 30.4777 61.7805 30.5537 61.6521 30.6047C61.5237 30.6556 61.3865 30.6805 61.2484 30.6777Z" fill="white"/>
<path d="M24.3828 36.8878C22.9944 36.8878 21.6372 36.4761 20.4827 35.7047C19.3283 34.9333 18.4285 33.837 17.8972 32.5542C17.3659 31.2715 17.2269 29.86 17.4977 28.4983C17.7686 27.1365 18.4372 25.8857 19.4189 24.9039C20.4007 23.9221 21.6516 23.2536 23.0133 22.9827C24.3751 22.7118 25.7865 22.8508 27.0693 23.3822C28.352 23.9135 29.4484 24.8133 30.2198 25.9677C30.9911 27.1221 31.4028 28.4794 31.4028 29.8678C31.4028 31.7296 30.6632 33.5152 29.3467 34.8317C28.0302 36.1482 26.2447 36.8878 24.3828 36.8878ZM24.3828 24.9247C23.4052 24.9247 22.4495 25.2146 21.6366 25.7578C20.8237 26.3009 20.1902 27.0729 19.816 27.9762C19.4419 28.8794 19.344 29.8733 19.5347 30.8321C19.7255 31.791 20.1963 32.6718 20.8876 33.3631C21.5789 34.0544 22.4596 34.5252 23.4185 34.7159C24.3774 34.9066 25.3712 34.8087 26.2745 34.4346C27.1777 34.0605 27.9497 33.4269 28.4929 32.614C29.036 31.8011 29.3259 30.8454 29.3259 29.8678C29.3241 28.5574 28.8027 27.3011 27.8761 26.3745C26.9495 25.4479 25.6933 24.9265 24.3828 24.9247ZM50.2682 36.8878C48.8798 36.8878 47.5226 36.4761 46.3681 35.7047C45.2137 34.9333 44.3139 33.837 43.7826 32.5542C43.2513 31.2715 43.1122 29.86 43.3831 28.4983C43.654 27.1365 44.3226 25.8857 45.3043 24.9039C46.2861 23.9221 47.5369 23.2536 48.8987 22.9827C50.2604 22.7118 51.6719 22.8508 52.9547 23.3822C54.2374 23.9135 55.3338 24.8133 56.1051 25.9677C56.8765 27.1221 57.2882 28.4794 57.2882 29.8678C57.2864 31.7291 56.5462 33.5135 55.2301 34.8297C53.914 36.1458 52.1295 36.886 50.2682 36.8878ZM50.2682 24.9247C49.2906 24.9247 48.3349 25.2146 47.522 25.7578C46.7091 26.3009 46.0755 27.0729 45.7014 27.9762C45.3273 28.8794 45.2294 29.8733 45.4201 30.8321C45.6109 31.791 46.0816 32.6718 46.7729 33.3631C47.4642 34.0544 48.345 34.5252 49.3039 34.7159C50.2627 34.9066 51.2566 34.8087 52.1599 34.4346C53.0631 34.0605 53.8351 33.4269 54.3782 32.614C54.9214 31.8011 55.2113 30.8454 55.2113 29.8678C55.2076 28.5579 54.6857 27.3028 53.7595 26.3765C52.8333 25.4503 51.5781 24.9284 50.2682 24.9247ZM56.2498 15.9386H39.4059C39.1305 15.9386 38.8664 15.8292 38.6716 15.6344C38.4769 15.4397 38.3675 15.1755 38.3675 14.9001V1.15087C38.3675 0.875456 38.4769 0.611319 38.6716 0.41657C38.8664 0.22182 39.1305 0.112412 39.4059 0.112412H44.709C45.6937 0.110135 46.6632 0.355601 47.5282 0.826214C48.3932 1.29683 49.126 1.97747 49.659 2.80549L57.1221 14.3393C57.2251 14.4956 57.2837 14.677 57.2915 14.864C57.2993 15.0511 57.2561 15.2367 57.1664 15.401C57.0768 15.5654 56.9441 15.7022 56.7826 15.7969C56.6212 15.8916 56.4369 15.9406 56.2498 15.9386ZM40.4444 13.8616H54.339L47.9144 3.93395C47.5694 3.39758 47.0949 2.95664 46.5348 2.65176C45.9746 2.34688 45.3467 2.18786 44.709 2.18934H40.4444V13.8616ZM19.6959 9.7701H8.84053C8.56511 9.7701 8.30098 9.6607 8.10623 9.46595C7.91148 9.2712 7.80207 9.00706 7.80207 8.73164C7.80207 8.45623 7.91148 8.19209 8.10623 7.99734C8.30098 7.80259 8.56511 7.69318 8.84053 7.69318H19.6959C19.9713 7.69318 20.2355 7.80259 20.4302 7.99734C20.625 8.19209 20.7344 8.45623 20.7344 8.73164C20.7344 9.00706 20.625 9.2712 20.4302 9.46595C20.2355 9.6607 19.9713 9.7701 19.6959 9.7701ZM14.8082 17.3024H1.91053C1.63511 17.3024 1.37098 17.193 1.17623 16.9983C0.981479 16.8035 0.87207 16.5394 0.87207 16.264C0.87207 15.9885 0.981479 15.7244 1.17623 15.5296C1.37098 15.3349 1.63511 15.2255 1.91053 15.2255H14.8082C15.0836 15.2255 15.3478 15.3349 15.5425 15.5296C15.7373 15.7244 15.8467 15.9885 15.8467 16.264C15.8467 16.5394 15.7373 16.8035 15.5425 16.9983C15.3478 17.193 15.0836 17.3024 14.8082 17.3024ZM13.6175 23.6024H5.87053C5.59511 23.6024 5.33098 23.493 5.13623 23.2983C4.94148 23.1035 4.83207 22.8394 4.83207 22.5639C4.83207 22.2885 4.94148 22.0244 5.13623 21.8296C5.33098 21.6349 5.59511 21.5255 5.87053 21.5255H13.6175C13.8929 21.5255 14.157 21.6349 14.3518 21.8296C14.5465 22.0244 14.6559 22.2885 14.6559 22.5639C14.6559 22.8394 14.5465 23.1035 14.3518 23.2983C14.157 23.493 13.8929 23.6024 13.6175 23.6024Z" fill="white"/>
</svg>
