<svg width="30" height="30" viewBox="0 0 30 30" fill="none" xmlns="http://www.w3.org/2000/svg">
<path d="M23.6201 12.919C23.3814 12.919 23.1525 13.0138 22.9837 13.1826C22.8149 13.3514 22.7201 13.5803 22.7201 13.819V24.789C22.7201 26.498 21.3291 27.889 19.6201 27.889H5.0001C4.17825 27.8879 3.39037 27.561 2.80924 26.9799C2.2281 26.3987 1.90116 25.6108 1.9001 24.789V7.18C1.9001 5.471 3.2911 4.08 5.0001 4.08H14.8201C15.0588 4.08 15.2877 3.98518 15.4565 3.8164C15.6253 3.64761 15.7201 3.41869 15.7201 3.18C15.7201 2.9413 15.6253 2.71239 15.4565 2.5436C15.2877 2.37482 15.0588 2.28 14.8201 2.28H5.0001C3.70094 2.28132 2.45538 2.798 1.53674 3.71664C0.618095 4.63528 0.101421 5.88084 0.100098 7.18V24.79C0.100098 27.492 2.2981 29.69 5.0001 29.69H19.6201C22.3221 29.69 24.5201 27.492 24.5201 24.79V13.82C24.5202 13.7017 24.497 13.5846 24.4519 13.4753C24.4067 13.366 24.3404 13.2666 24.2568 13.183C24.1733 13.0993 24.074 13.0329 23.9647 12.9876C23.8555 12.9423 23.7384 12.919 23.6201 12.919Z" fill="white"/>
<path d="M17.9301 15.5H11.2611C11.0224 15.5 10.7935 15.5948 10.6247 15.7636C10.456 15.9324 10.3611 16.1613 10.3611 16.4C10.3611 16.6387 10.456 16.8676 10.6247 17.0364C10.7935 17.2052 11.0224 17.3 11.2611 17.3H17.9301C18.1688 17.3 18.3977 17.2052 18.5665 17.0364C18.7353 16.8676 18.8301 16.6387 18.8301 16.4C18.8301 16.1613 18.7353 15.9324 18.5665 15.7636C18.3977 15.5948 18.1688 15.5 17.9301 15.5ZM7.41413 15.5H6.68613C6.44744 15.5 6.21852 15.5948 6.04974 15.7636C5.88095 15.9324 5.78613 16.1613 5.78613 16.4C5.78613 16.6387 5.88095 16.8676 6.04974 17.0364C6.21852 17.2052 6.44744 17.3 6.68613 17.3H7.41513C7.53332 17.2999 7.65034 17.2766 7.75951 17.2313C7.86868 17.186 7.96786 17.1197 8.05138 17.036C8.13491 16.9524 8.20115 16.8532 8.24632 16.7439C8.29149 16.6347 8.3147 16.5177 8.31463 16.3995C8.31457 16.2813 8.29122 16.1643 8.24593 16.0551C8.20064 15.9459 8.13429 15.8468 8.05068 15.7632C7.96706 15.6797 7.8678 15.6135 7.75859 15.5683C7.64937 15.5231 7.53232 15.4999 7.41413 15.5ZM17.9301 10.991H11.2611C11.0224 10.991 10.7935 11.0858 10.6247 11.2546C10.456 11.4234 10.3611 11.6523 10.3611 11.891C10.3611 12.1297 10.456 12.3586 10.6247 12.5274C10.7935 12.6962 11.0224 12.791 11.2611 12.791H17.9301C18.1688 12.791 18.3977 12.6962 18.5665 12.5274C18.7353 12.3586 18.8301 12.1297 18.8301 11.891C18.8301 11.6523 18.7353 11.4234 18.5665 11.2546C18.3977 11.0858 18.1688 10.991 17.9301 10.991ZM7.41413 10.991H6.68613C6.44744 10.991 6.21852 11.0858 6.04974 11.2546C5.88095 11.4234 5.78613 11.6523 5.78613 11.891C5.78613 12.1297 5.88095 12.3586 6.04974 12.5274C6.21852 12.6962 6.44744 12.791 6.68613 12.791H7.41513C7.65383 12.7909 7.88269 12.6959 8.05138 12.527C8.22007 12.3582 8.31477 12.1292 8.31463 11.8905C8.3145 11.6518 8.21955 11.4229 8.05068 11.2542C7.8818 11.0856 7.65283 10.9909 7.41413 10.991ZM17.9301 20.009H11.2611C11.0224 20.009 10.7935 20.1038 10.6247 20.2726C10.456 20.4414 10.3611 20.6703 10.3611 20.909C10.3611 21.1477 10.456 21.3766 10.6247 21.5454C10.7935 21.7142 11.0224 21.809 11.2611 21.809H17.9301C18.1688 21.809 18.3977 21.7142 18.5665 21.5454C18.7353 21.3766 18.8301 21.1477 18.8301 20.909C18.8301 20.6703 18.7353 20.4414 18.5665 20.2726C18.3977 20.1038 18.1688 20.009 17.9301 20.009ZM7.41413 20.009H6.68613C6.44744 20.009 6.21852 20.1038 6.04974 20.2726C5.88095 20.4414 5.78613 20.6703 5.78613 20.909C5.78613 21.1477 5.88095 21.3766 6.04974 21.5454C6.21852 21.7142 6.44744 21.809 6.68613 21.809H7.41513C7.53332 21.8089 7.65034 21.7856 7.75951 21.7403C7.86868 21.695 7.96786 21.6287 8.05138 21.545C8.13491 21.4614 8.20115 21.3622 8.24632 21.2529C8.29149 21.1437 8.3147 21.0267 8.31463 20.9085C8.31457 20.7903 8.29122 20.6733 8.24593 20.5641C8.20064 20.455 8.13429 20.3558 8.05068 20.2722C7.96706 20.1887 7.8678 20.1225 7.75859 20.0773C7.64937 20.0321 7.53232 20.0089 7.41413 20.009ZM28.7641 1.44399C28.091 0.772841 27.1947 0.37231 26.2457 0.318479C25.2966 0.264648 24.3609 0.561266 23.6161 1.15199C22.8709 0.560974 21.9345 0.264292 20.9849 0.318308C20.0353 0.372325 19.1386 0.773277 18.4651 1.44499C17.7405 2.17175 17.3335 3.15618 17.3335 4.18249C17.3335 5.2088 17.7405 6.19324 18.4651 6.91999L22.1641 10.619C22.5641 11.019 23.0901 11.22 23.6161 11.22C24.1421 11.22 24.6681 11.02 25.0681 10.619L28.7671 6.91999C29.4917 6.1928 29.8983 5.20793 29.8977 4.18137C29.8972 3.15482 29.4895 2.17039 28.7641 1.44399ZM27.4941 5.64799L23.7951 9.34699C23.7716 9.37052 23.7437 9.38918 23.713 9.40191C23.6823 9.41464 23.6494 9.4212 23.6161 9.4212C23.5829 9.4212 23.55 9.41464 23.5192 9.40191C23.4885 9.38918 23.4606 9.37052 23.4371 9.34699L19.7381 5.64799C19.3503 5.25856 19.1327 4.73121 19.133 4.18158C19.1334 3.63195 19.3517 3.10489 19.7401 2.71599C19.9325 2.52377 20.161 2.37138 20.4124 2.26757C20.6638 2.16375 20.9332 2.11055 21.2051 2.11099C21.7341 2.11099 22.2641 2.31199 22.6671 2.71399L22.9801 3.02699C23.0635 3.11066 23.1625 3.17704 23.2716 3.22233C23.3806 3.26763 23.4975 3.29095 23.6156 3.29095C23.7337 3.29095 23.8506 3.26763 23.9597 3.22233C24.0688 3.17704 24.1678 3.11066 24.2511 3.02699L24.5641 2.71499C24.9572 2.34726 25.4779 2.14677 26.0161 2.15587C26.5543 2.16498 27.0679 2.38297 27.4483 2.76379C27.8287 3.1446 28.0462 3.65841 28.0547 4.19662C28.0633 4.73483 27.8623 5.25528 27.4941 5.64799Z" fill="white"/>
</svg>
