<svg width="28" height="25" viewBox="0 0 28 25" fill="none" xmlns="http://www.w3.org/2000/svg">
<path d="M27.0002 11.6667V19.6667C27.0785 20.3422 27.003 21.0267 26.7795 21.669C26.5559 22.3113 26.1899 22.8946 25.7091 23.3755C25.2282 23.8564 24.6448 24.2223 24.0025 24.4459C23.3603 24.6695 22.6758 24.745 22.0002 24.6667H6.00021C5.32467 24.745 4.64016 24.6695 3.9979 24.4459C3.35563 24.2223 2.77224 23.8564 2.29136 23.3755C1.81048 22.8946 1.44456 22.3113 1.22097 21.669C0.99738 21.0267 0.921913 20.3422 1.00021 19.6667V6.33334C0.921913 5.65779 0.99738 4.97329 1.22097 4.33102C1.44456 3.68876 1.81048 3.10537 2.29136 2.62449C2.77224 2.1436 3.35563 1.77768 3.9979 1.5541C4.64016 1.33051 5.32467 1.25504 6.00021 1.33334H16.6669C16.9321 1.33334 17.1864 1.43869 17.374 1.62623C17.5615 1.81377 17.6669 2.06812 17.6669 2.33334C17.6669 2.59855 17.5615 2.85291 17.374 3.04044C17.1864 3.22798 16.9321 3.33334 16.6669 3.33334H6.00021C3.89754 3.33334 3.00021 4.23067 3.00021 6.33334V18.6667L6.38688 15.28C6.63862 15.0302 6.9789 14.89 7.33354 14.89C7.68819 14.89 8.02847 15.0302 8.28021 15.28L9.53354 16.5333C9.65816 16.6555 9.82571 16.7239 10.0002 16.7239C10.1747 16.7239 10.3423 16.6555 10.4669 16.5333L17.0535 9.94667C17.3053 9.69687 17.6456 9.55669 18.0002 9.55669C18.3549 9.55669 18.6951 9.69687 18.9469 9.94667L25.0002 16V11.6667C25.0002 11.4015 25.1056 11.1471 25.2931 10.9596C25.4806 10.772 25.735 10.6667 26.0002 10.6667C26.2654 10.6667 26.5198 10.772 26.7073 10.9596C26.8949 11.1471 27.0002 11.4015 27.0002 11.6667ZM8.65754 7.33334C8.21486 7.33457 7.79077 7.51146 7.4784 7.82514C7.16603 8.13882 6.99093 8.56365 6.99155 9.00633C6.99216 9.44902 7.16845 9.87336 7.4817 10.1862C7.79494 10.499 8.21953 10.6747 8.66221 10.6747C9.1049 10.6747 9.52948 10.499 9.84273 10.1862C10.156 9.87336 10.3323 9.44902 10.3329 9.00633C10.3335 8.56365 10.1584 8.13882 9.84602 7.82514C9.53366 7.51146 9.10956 7.33457 8.66688 7.33334H8.65754ZM22.7069 3.70667L23.0002 3.41467V6.33334C23.0002 6.59855 23.1056 6.85291 23.2931 7.04044C23.4806 7.22798 23.735 7.33334 24.0002 7.33334C24.2654 7.33334 24.5198 7.22798 24.7073 7.04044C24.8949 6.85291 25.0002 6.59855 25.0002 6.33334V3.41467L25.2935 3.70667C25.4831 3.88331 25.7338 3.97948 25.9929 3.9749C26.252 3.97033 26.4992 3.86538 26.6824 3.68217C26.8656 3.49895 26.9705 3.25177 26.9751 2.9927C26.9797 2.73363 26.8835 2.4829 26.7069 2.29334L24.7069 0.293338C24.5192 0.106396 24.2651 0.00143433 24.0002 0.00143433C23.7353 0.00143433 23.4812 0.106396 23.2935 0.293338L21.2935 2.29334C21.1169 2.4829 21.0207 2.73363 21.0253 2.9927C21.0299 3.25177 21.1348 3.49895 21.3181 3.68217C21.5013 3.86538 21.7484 3.97033 22.0075 3.9749C22.2666 3.97948 22.5173 3.88331 22.7069 3.70667Z" fill="#631D5C"/>
</svg>
