<svg width="30" height="30" viewBox="0 0 30 30" fill="none" xmlns="http://www.w3.org/2000/svg">
<path d="M27.146 22.4342C28.5187 20.1979 29.2437 17.6244 29.2401 15.0003C29.2437 12.3762 28.5188 9.8022 27.146 7.56575L27.1383 7.55327C25.8648 5.4775 24.0802 3.763 21.9551 2.57362C19.83 1.38424 17.4354 0.759705 15.0001 0.759705C12.5648 0.759705 10.1702 1.38424 8.04508 2.57362C5.91997 3.763 4.13539 5.4775 2.86186 7.55327L2.85418 7.56575C1.48487 9.8037 0.760254 12.3764 0.760254 15C0.760254 17.6236 1.48487 20.1963 2.85418 22.4342L2.86218 22.447C4.13576 24.5227 5.92035 26.2371 8.04544 27.4264C10.1705 28.6157 12.5651 29.2402 15.0003 29.2402C17.4356 29.2401 19.8302 28.6156 21.9552 27.4262C24.0803 26.2369 25.8648 24.5224 27.1383 22.4467L27.146 22.4342ZM16.8203 26.7993C16.5489 27.0612 16.2365 27.277 15.8955 27.4381C15.6156 27.571 15.3097 27.64 14.9999 27.64C14.6901 27.64 14.3842 27.571 14.1044 27.4381C13.4556 27.1067 12.9003 26.618 12.4891 26.0166C11.6493 24.8031 11.027 23.4527 10.65 22.0259C12.0986 21.9367 13.5486 21.8913 15.0001 21.8896C16.451 21.8896 17.9011 21.935 19.3505 22.0259C19.1418 22.7595 18.8811 23.4772 18.5703 24.1737C18.1612 25.1533 17.567 26.0448 16.8203 26.7993ZM2.38794 15.8H8.13162C8.16905 17.4027 8.3428 18.9993 8.65098 20.5725C7.08085 20.7107 5.51477 20.9006 3.95274 21.1421C3.03794 19.5009 2.50319 17.6753 2.38794 15.8ZM3.95274 8.85823C5.51413 9.10015 7.08074 9.29002 8.65258 9.42783C8.34385 11.0009 8.16979 12.5974 8.13226 14.2H2.38794C2.50324 12.3247 3.03798 10.4993 3.95274 8.85823ZM13.1799 3.20063C13.4513 2.93873 13.7637 2.72298 14.1047 2.56191C14.3846 2.42896 14.6905 2.35998 15.0003 2.35998C15.3101 2.35998 15.616 2.42896 15.8958 2.56191C16.5446 2.89328 17.0999 3.38199 17.5111 3.98335C18.3509 5.19691 18.9732 6.54727 19.3502 7.97407C17.9016 8.06324 16.4516 8.10868 15.0001 8.11039C13.5492 8.11039 12.0991 8.06495 10.6497 7.97407C10.8584 7.24051 11.1191 6.52274 11.4299 5.82623C11.839 4.84666 12.4332 3.95519 13.1799 3.20063ZM27.6123 14.2H21.8686C21.8311 12.5973 21.6574 11.0007 21.3492 9.42751C22.9194 9.28927 24.4854 9.0994 26.0475 8.85791C26.9623 10.4991 27.497 12.3246 27.6123 14.2ZM10.2603 20.448C9.9474 18.9173 9.77071 17.3619 9.73226 15.8H20.2683C20.2302 17.3619 20.0538 18.9175 19.7412 20.4483C18.1626 20.3446 16.5822 20.2917 15.0001 20.2896C13.4193 20.2896 11.8394 20.3424 10.2603 20.448ZM19.7399 9.55199C20.0528 11.0827 20.2295 12.6381 20.2679 14.2H9.73226C9.77034 12.638 9.94671 11.0825 10.2593 9.55167C11.838 9.65535 13.4183 9.70825 15.0004 9.71039C16.5812 9.71039 18.1612 9.65748 19.7403 9.55167L19.7399 9.55199ZM21.8679 15.8H27.6123C27.497 17.6752 26.9622 19.5007 26.0475 21.1417C24.4859 20.8998 22.9192 20.71 21.3476 20.5721C21.6564 18.9991 21.8304 17.4026 21.8679 15.8ZM25.0881 7.38559C23.7228 7.58249 22.3535 7.73844 20.9803 7.85343C20.7335 6.9344 20.4152 6.03609 20.0283 5.16671C19.675 4.36673 19.2304 3.61024 18.7035 2.91231C21.2499 3.69332 23.4845 5.25893 25.0881 7.38559ZM6.0625 6.06207C7.52328 4.59989 9.32043 3.51837 11.2964 2.91231C11.2663 2.95135 11.2356 2.98847 11.2062 3.02783C10.1905 4.48988 9.45065 6.1253 9.02314 7.85343C7.6497 7.73716 6.27946 7.58121 4.91242 7.38559C5.26494 6.91853 5.64921 6.47631 6.0625 6.06207ZM4.91242 22.6144C6.27754 22.4175 7.64682 22.2615 9.02026 22.1465C9.26705 23.0656 9.58535 23.9639 9.97226 24.8333C10.3256 25.6332 10.7701 26.3897 11.2971 27.0877C8.75062 26.3067 6.51605 24.741 4.91242 22.6144ZM23.9383 23.9379C22.4776 25.4001 20.6804 26.4816 18.7044 27.0877C18.7345 27.0486 18.7652 27.0115 18.7947 26.9721C19.8103 25.5101 20.5502 23.8747 20.9777 22.1465C22.3511 22.2628 23.7214 22.4188 25.0884 22.6144C24.7359 23.0814 24.3516 23.5237 23.9383 23.9379Z" fill="white"/>
</svg>
