<svg width="30" height="30" viewBox="0 0 30 30" fill="none" xmlns="http://www.w3.org/2000/svg">
<path d="M24.1881 0.100006H5.8131C4.29848 0.101859 2.84644 0.704357 1.77544 1.77535C0.704448 2.84634 0.10195 4.29839 0.100098 5.81301V24.188C0.101951 25.7025 0.704481 27.1545 1.7755 28.2253C2.84653 29.2961 4.29858 29.8984 5.8131 29.9H24.1881C25.7025 29.8982 27.1544 29.2958 28.2254 28.225C29.2964 27.1542 29.899 25.7024 29.9011 24.188V5.81301C29.899 4.29847 29.2964 2.84658 28.2255 1.77564C27.1545 0.704706 25.7026 0.102122 24.1881 0.100006ZM28.1001 24.188C28.099 25.2253 27.6866 26.2198 26.9532 26.9534C26.2198 27.687 25.2254 28.0997 24.1881 28.101H5.8131C4.7758 28.0997 3.78139 27.687 3.048 26.9534C2.31462 26.2198 1.90216 25.2253 1.9011 24.188V5.81301C1.90163 4.77555 2.31392 3.78072 3.04742 3.04704C3.78092 2.31335 4.77564 1.9008 5.8131 1.90001H24.1881C25.2254 1.90133 26.2198 2.31405 26.9532 3.04762C27.6866 3.78119 28.099 4.77571 28.1001 5.81301V24.188Z" fill="white"/>
<path d="M18.4662 18.786H11.5342C10.3542 18.7852 9.21905 19.238 8.36345 20.0506C7.50784 20.8632 6.99724 21.9735 6.93721 23.152C6.93117 23.27 6.94843 23.388 6.988 23.4993C7.02758 23.6107 7.08869 23.7131 7.16785 23.8008C7.24701 23.8885 7.34267 23.9598 7.44937 24.0105C7.55607 24.0612 7.67172 24.0905 7.78971 24.0965C7.90771 24.1025 8.02573 24.0853 8.13705 24.0457C8.24838 24.0061 8.35082 23.945 8.43852 23.8659C8.52623 23.7867 8.59748 23.691 8.64821 23.5843C8.69895 23.4776 8.72817 23.362 8.73421 23.244C8.77113 22.5264 9.08225 21.8503 9.60333 21.3555C10.1244 20.8606 10.8156 20.5848 11.5342 20.585H18.4662C19.1848 20.5848 19.876 20.8606 20.3971 21.3555C20.9182 21.8503 21.2293 22.5264 21.2662 23.244C21.278 23.4741 21.3776 23.691 21.5445 23.8498C21.7113 24.0087 21.9328 24.0975 22.1632 24.098L22.2102 24.097C22.3283 24.091 22.444 24.0618 22.5508 24.011C22.6575 23.9603 22.7533 23.889 22.8325 23.8012C22.9117 23.7135 22.9728 23.611 23.0124 23.4996C23.052 23.3882 23.0693 23.2701 23.0632 23.152C23.0032 21.9735 22.4926 20.8632 21.637 20.0506C20.7814 19.238 19.6462 18.7852 18.4662 18.786ZM15.0002 16.767C17.9952 16.767 20.4332 14.33 20.4332 11.335C20.4332 8.34001 17.9952 5.90201 15.0002 5.90201C12.0052 5.90201 9.56721 8.33901 9.56721 11.334C9.56721 14.329 12.0052 16.767 15.0002 16.767ZM15.0002 7.70201C17.0032 7.70201 18.6322 9.33101 18.6322 11.334C18.6322 13.337 17.0032 14.967 15.0002 14.967C12.9972 14.967 11.3682 13.338 11.3682 11.335C11.3682 9.33201 12.9972 7.70201 15.0002 7.70201Z" fill="white"/>
</svg>
